<svg width="657" height="595" viewBox="0 0 657 595" fill="none" xmlns="http://www.w3.org/2000/svg">
<path d="M237.763 58.9347C277.774 126.355 379.862 265.721 468.131 283.824C565.817 286.281 732.108 333.862 615.775 504.522C531.546 628.085 163.688 667.251 19.3691 326.151C-8.50944 239.077 -24.5357 57.7308 124.927 4.60823C127.168 3.81147 129.447 3.44364 131.764 2.99021L135.641 2.07264C139.55 1.8531 144.09 0.853615 149.05 1.10778C178.722 2.62856 223.408 14.4878 237.763 58.9347Z" fill="#FDC021"/>
<path d="M135.641 2.07265C131.979 3.16803 128.408 3.37092 124.927 4.60823M135.641 2.07265L124.927 4.60823M135.641 2.07265C139.55 1.8531 144.09 0.853616 149.05 1.10779C178.722 2.62856 223.408 14.4878 237.763 58.9347C277.774 126.355 379.862 265.721 468.131 283.824C565.817 286.281 732.108 333.862 615.775 504.522C531.546 628.085 163.688 667.25 19.3691 326.151C-8.50944 239.077 -24.5357 57.7308 124.927 4.60823" stroke="#FDC221"/>
</svg>
